<?xml version="1.0" encoding="UTF-8"?>
<svg version="1.1" xmlns="http://www.w3.org/2000/svg" width="84" height="78">
<path d="M0 0 C27.72 0 55.44 0 84 0 C84 25.74 84 51.48 84 78 C56.28 78 28.56 78 0 78 C0 52.26 0 26.52 0 0 Z " fill="#FDFEFD" transform="translate(0,0)"/>
<path d="M0 0 C1.37381836 -0.04350586 1.37381836 -0.04350586 2.77539062 -0.08789062 C9.4272964 -0.15087298 9.4272964 -0.15087298 12.80859375 1.91015625 C14.65175 5.12132082 14.58466427 7.38339325 14.4375 11.0625 C14.40140625 12.23296875 14.3653125 13.4034375 14.328125 14.609375 C14.28171875 15.50140625 14.2353125 16.3934375 14.1875 17.3125 C13.14851563 17.39886719 12.10953125 17.48523438 11.0390625 17.57421875 C2.52167639 18.39007208 -4.47778953 19.57247959 -11.8125 24.3125 C-12.740625 24.910625 -13.66875 25.50875 -14.625 26.125 C-21.73610604 33.23610604 -23.78701842 41.57042503 -24.8125 51.3125 C-27.4525 51.3125 -30.0925 51.3125 -32.8125 51.3125 C-32.8125 50.6525 -32.8125 49.9925 -32.8125 49.3125 C-33.8025 48.9825 -34.7925 48.6525 -35.8125 48.3125 C-37.57002146 44.79745709 -37.08203401 40.81016748 -37.125 36.9375 C-37.15400391 36.07382812 -37.18300781 35.21015625 -37.21289062 34.3203125 C-37.25136674 30.48454027 -37.27024709 28.05619774 -35.23046875 24.7421875 C-31.08889717 22.29337458 -26.82282352 22.82106206 -22.125 22.78125 C-18.78931582 22.56130174 -18.78931582 22.56130174 -16.41015625 20.65234375 C-14.41640496 17.73239994 -14.3164431 15.88762517 -14.25 12.375 C-14.0101724 1.21596276 -9.74233906 0.10155322 0 0 Z " fill="#7FD958" transform="translate(41.8125,1.6875)"/>
<path d="M0 0 C2.46800047 1.15173355 4.04783565 2.04783565 6 4 C6.47330426 7.08204601 6.37036907 10.19819933 6.375 13.3125 C6.39949219 14.16779297 6.42398438 15.02308594 6.44921875 15.90429688 C6.46777019 19.89594884 6.27291482 22.46035735 4.44921875 26.06640625 C0.65424861 29.06243531 -2.91643505 28.625 -7.59960938 28.625 C-10.33593611 28.67934611 -12.50912315 28.73233878 -14.94140625 30.05859375 C-16.57045102 33.04617771 -16.375 36.11620094 -16.375 39.4375 C-16.41502466 46.26170451 -16.41502466 46.26170451 -18.9375 49.4453125 C-23.22871375 51.6237603 -26.8812208 51.54890694 -31.625 51.4375 C-32.48351563 51.44458984 -33.34203125 51.45167969 -34.2265625 51.45898438 C-40.49699533 51.39530029 -40.49699533 51.39530029 -42.70458984 49.66040039 C-45.36083307 46.25574336 -45.10700367 42.95134137 -45.0625 38.8125 C-45.05347656 37.72582031 -45.04445313 36.63914063 -45.03515625 35.51953125 C-45.02355469 34.68808594 -45.01195313 33.85664062 -45 33 C-43.69804688 33.04640625 -42.39609375 33.0928125 -41.0546875 33.140625 C-39.32814804 33.17815847 -37.60158364 33.21455693 -35.875 33.25 C-34.59109375 33.30027344 -34.59109375 33.30027344 -33.28125 33.3515625 C-27.62714005 33.43854881 -24.40765538 32.87074552 -20 29 C-15.16751935 24.21656031 -12.00534811 18.80163605 -8.875 12.8125 C-3.90151839 3.33516895 -3.90151839 3.33516895 0 0 Z " fill="#80D95A" transform="translate(73,25)"/>
<path d="M0 0 C0 0.33 0 0.66 0 1 C-0.9178125 1.21914063 -1.835625 1.43828125 -2.78125 1.6640625 C-15.21264115 4.87637576 -23.69555077 10.38696754 -30.546875 21.51171875 C-31.74436407 23.6544169 -32.89830503 25.80676392 -34 28 C-35.32 28 -36.64 28 -38 28 C-37.62819237 20.93565509 -33.85177305 14.8681 -28.953125 9.94140625 C-20.40064709 2.89016116 -11.00969237 -0.21587632 0 0 Z " fill="#8BDC68" transform="translate(58,25)"/>
</svg>
