<?xml version="1.0" encoding="UTF-8"?>
<svg version="1.1" xmlns="http://www.w3.org/2000/svg" width="354" height="78">
<path d="M0 0 C1.06154297 -0.0309375 1.06154297 -0.0309375 2.14453125 -0.0625 C6.66901959 -0.09620196 9.54074425 0.44256013 13.125 3.25 C14.54134833 6.08269666 14.4713005 8.72466438 14.6875 11.875 C14.77128906 13.06351563 14.85507812 14.25203125 14.94140625 15.4765625 C15.00199219 16.39179688 15.06257813 17.30703125 15.125 18.25 C13.94164062 18.40855469 12.75828125 18.56710938 11.5390625 18.73046875 C-5.07374534 21.09975178 -5.07374534 21.09975178 -17.703125 31.51953125 C-22.03837185 37.92124577 -23.31030637 44.77054251 -24.875 52.25 C-32.0494333 52.85800282 -32.0494333 52.85800282 -35.6171875 50.23046875 C-38.42914712 46.51848745 -38.52263611 43.71642247 -38.3125 39.25 C-38.30669922 38.55132812 -38.30089844 37.85265625 -38.29492188 37.1328125 C-38.20024568 33.118542 -37.7676886 29.81115625 -35.875 26.25 C-31.12192246 22.74773234 -26.27236083 22.89450838 -20.58203125 22.8515625 C-17.71311099 22.50007497 -17.71311099 22.50007497 -16.04296875 20.08984375 C-14.3877624 16.06531193 -14.41152249 12.39426408 -14.28125 8.08984375 C-13.82496211 4.90021592 -13.11260467 3.535101 -10.875 1.25 C-7.21649645 0.03049882 -3.81096431 0.02746641 0 0 Z " fill="#80D659" transform="translate(40.875,1.75)"/>
<path d="M0 0 C3.38317434 1.35326974 3.95660321 2.7235891 5.5 6 C5.8984375 9.55859375 5.8984375 9.55859375 5.875 13.4375 C5.88660156 15.35369141 5.88660156 15.35369141 5.8984375 17.30859375 C5.47615637 21.22090421 4.55966896 23.66936459 2.5 27 C-0.27421818 28.38710909 -2.78503631 28.30557532 -5.875 28.5 C-9.55770637 28.73276699 -12.94030237 29.04714677 -16.5 30 C-16.59796875 31.18078125 -16.6959375 32.3615625 -16.796875 33.578125 C-16.94698409 35.13550684 -17.09807747 36.69279402 -17.25 38.25 C-17.3428125 39.41595703 -17.3428125 39.41595703 -17.4375 40.60546875 C-17.81867441 44.32191924 -18.08674164 46.45695803 -20.390625 49.484375 C-24.39549316 52.36194694 -28.07312452 52.19339636 -32.875 52.25 C-34.18210937 52.27578125 -35.48921875 52.3015625 -36.8359375 52.328125 C-40.65074144 51.98650077 -42.49765501 51.31641599 -45.5 49 C-47.02106634 45.95786733 -46.87429338 42.71952428 -47.0625 39.375 C-47.10568359 38.66859375 -47.14886719 37.9621875 -47.19335938 37.234375 C-47.29944751 35.48981463 -47.40022889 33.74493303 -47.5 32 C-45.93958984 32.23976563 -45.93958984 32.23976563 -44.34765625 32.484375 C-33.39776644 33.97326329 -33.39776644 33.97326329 -23.5 30 C-18.16489085 24.65592291 -14.36159151 18.7778828 -10.75 12.1875 C-9.8220879 10.51189013 -8.88995684 8.83860797 -7.953125 7.16796875 C-7.55254883 6.43860107 -7.15197266 5.7092334 -6.73925781 4.95776367 C-3.6010101 0 -3.6010101 0 0 0 Z " fill="#7FD659" transform="translate(73.5,26)"/>
<path d="M0 0 C2.536875 -0.061875 5.07375 -0.12375 7.6875 -0.1875 C8.47729248 -0.21481201 9.26708496 -0.24212402 10.08081055 -0.27026367 C14.60326123 -0.32344207 17.48685291 0.09953534 21 3 C23.26177773 6.17742188 23.29799301 9.10281947 23.3125 12.9375 C23.32925781 13.95714844 23.34601563 14.97679687 23.36328125 16.02734375 C22.9440555 19.45778245 22.10215753 21.27146596 20 24 C16.40986902 26.80164427 12.08871901 26.22388569 7.75 26.125 C5.1925 26.08375 2.635 26.0425 0 26 C0 17.42 0 8.84 0 0 Z M6 5 C6 10.28 6 15.56 6 21 C12.48340918 21.611447 12.48340918 21.611447 15.4375 19.5 C17.63828902 15.97873756 17.80414661 13.04560357 17 9 C15.60314994 6.3530128 15.60314994 6.3530128 13 5 C10.69 5 8.38 5 6 5 Z " fill="#010101" transform="translate(233,27)"/>
<path d="M0 0 C2.578125 -0.061875 5.15625 -0.12375 7.8125 -0.1875 C9.02450073 -0.22846802 9.02450073 -0.22846802 10.26098633 -0.27026367 C15.52521944 -0.33168303 15.52521944 -0.33168303 17.95703125 1.3671875 C19.43600887 3.68259066 19.87154408 5.23819763 20 8 C19.443125 8.845625 18.88625 9.69125 18.3125 10.5625 C16.19620197 16.10518531 18.84687164 20.69867201 21 26 C18.69 26 16.38 26 14 26 C13.01 23.03 12.02 20.06 11 17 C9.35 16.67 7.7 16.34 6 16 C6 19.3 6 22.6 6 26 C4.02 26 2.04 26 0 26 C0 17.42 0 8.84 0 0 Z M6 5 C6 6.98 6 8.96 6 11 C7.98 11 9.96 11 12 11 C12.66 9.68 13.32 8.36 14 7 C12.10244856 4.65026182 12.10244856 4.65026182 8.875 4.875 C7.92625 4.91625 6.9775 4.9575 6 5 Z " fill="#010101" transform="translate(155,27)"/>
<path d="M0 0 C1.16015625 0.11794922 1.16015625 0.11794922 2.34375 0.23828125 C4.5 0.6875 4.5 0.6875 7.5 2.6875 C6.84 4.3375 6.18 5.9875 5.5 7.6875 C2.2 7.0275 -1.1 6.3675 -4.5 5.6875 C-4.5 6.6775 -4.5 7.6675 -4.5 8.6875 C-3.72914063 8.94144531 -2.95828125 9.19539063 -2.1640625 9.45703125 C-1.16117187 9.80121094 -0.15828125 10.14539062 0.875 10.5 C2.37160156 11.00466797 2.37160156 11.00466797 3.8984375 11.51953125 C6.5 12.6875 6.5 12.6875 8.5 15.6875 C9.17092652 21.83765974 9.17092652 21.83765974 6.625 25.0625 C2.74454806 28.02990443 -0.72610364 28.20978809 -5.5 27.6875 C-9.08552881 26.05062815 -10.29315055 24.99777417 -12.5 21.6875 C-11.51 20.6975 -10.52 19.7075 -9.5 18.6875 C-8.984375 19.0175 -8.46875 19.3475 -7.9375 19.6875 C-4.71973488 21.00760877 -1.9429472 20.81992105 1.5 20.6875 C1.5 19.3675 1.5 18.0475 1.5 16.6875 C0.448125 16.584375 -0.60375 16.48125 -1.6875 16.375 C-5.40104094 15.70534508 -7.49303465 14.89850393 -10.5 12.6875 C-11.92041821 9.84666359 -11.81452272 7.83272722 -11.5 4.6875 C-8.1702165 0.43915554 -5.26288299 -0.5876886 0 0 Z " fill="#010101" transform="translate(308.5,26.3125)"/>
<path d="M0 0 C1.98 0 3.96 0 6 0 C6.02505615 0.57032959 6.0501123 1.14065918 6.07592773 1.72827148 C6.19156549 4.29826157 6.31443624 6.86785527 6.4375 9.4375 C6.47681641 10.33533203 6.51613281 11.23316406 6.55664062 12.15820312 C6.59853516 13.01220703 6.64042969 13.86621094 6.68359375 14.74609375 C6.72025146 15.53685303 6.75690918 16.3276123 6.79467773 17.14233398 C6.80563257 19.01401441 6.80563257 19.01401441 8 20 C9.99958364 20.04080783 12.00045254 20.04254356 14 20 C15.11823815 17.76352369 15.19396061 16.35108471 15.31640625 13.8671875 C15.35830078 13.06152344 15.40019531 12.25585938 15.44335938 11.42578125 C15.48267578 10.58402344 15.52199219 9.74226563 15.5625 8.875 C15.60568359 8.02550781 15.64886719 7.17601562 15.69335938 6.30078125 C15.79954236 4.20071777 15.90028497 2.10038052 16 0 C17.98 0 19.96 0 22 0 C22.0875127 3.22899426 22.14056146 6.45768116 22.1875 9.6875 C22.21263672 10.59951172 22.23777344 11.51152344 22.26367188 12.45117188 C22.31826639 17.45566895 22.32395458 20.95911405 19 25 C15.96711633 27.35890952 12.7394812 27.35622018 8.96484375 27.2578125 C6.08162525 26.87949755 4.25635151 25.79180855 2 24 C-0.16926659 20.74610012 -0.24080049 19.86604043 -0.1953125 16.11328125 C-0.18886719 15.17548828 -0.18242188 14.23769531 -0.17578125 13.27148438 C-0.15902344 12.29501953 -0.14226562 11.31855469 -0.125 10.3125 C-0.11597656 9.32443359 -0.10695313 8.33636719 -0.09765625 7.31835938 C-0.0740843 4.87866235 -0.04118022 2.43945303 0 0 Z " fill="#010101" transform="translate(120,27)"/>
<path d="M0 0 C1.98 0 3.96 0 6 0 C6.33 2.64 6.66 5.28 7 8 C7.35191406 7.4225 7.70382812 6.845 8.06640625 6.25 C9.59101256 3.9571195 11.04025227 1.93849233 13 0 C16.875 -0.5 16.875 -0.5 20 0 C18.59023295 3.03852705 16.91129772 5.5939595 14.875 8.25 C14.33617187 8.95640625 13.79734375 9.6628125 13.2421875 10.390625 C12.83226562 10.92171875 12.42234375 11.4528125 12 12 C12.39832031 12.53109375 12.79664063 13.0621875 13.20703125 13.609375 C14.8046875 15.73958333 16.40234375 17.86979167 18 20 C18.56074219 20.70640625 19.12148438 21.4128125 19.69921875 22.140625 C21 24 21 24 21 26 C17.9375 26.5 17.9375 26.5 14 26 C11.28705144 23.61176729 9.13518274 20.90748288 7 18 C6.67 20.64 6.34 23.28 6 26 C4.02 26 2.04 26 0 26 C0 17.42 0 8.84 0 0 Z " fill="#010101" transform="translate(329,27)"/>
<path d="M0 0 C2.5625 1.875 2.5625 1.875 4 4 C4 4.99 4 5.98 4 7 C1.625 7.625 1.625 7.625 -1 8 C-1.66 7.34 -2.32 6.68 -3 6 C-6 5.66666667 -6 5.66666667 -9 6 C-11.22052862 7.80599761 -11.22052862 7.80599761 -11.265625 10.3125 C-11.26046875 11.199375 -11.2553125 12.08625 -11.25 13 C-11.25515625 13.886875 -11.2603125 14.77375 -11.265625 15.6875 C-11.22052862 18.19400239 -11.22052862 18.19400239 -9 20 C-6 20.41666667 -6 20.41666667 -3 20 C-2.34 19.01 -1.68 18.02 -1 17 C1.4375 17.375 1.4375 17.375 4 18 C4.33 18.66 4.66 19.32 5 20 C3.75408501 22.62297893 2.61861236 24.51885706 0.3125 26.3125 C-4.350194 27.69870632 -8.42278729 27.70098343 -12.8125 25.75 C-16.62433257 22.70053394 -18.09753073 20.52792415 -18.8125 15.6875 C-19.14543303 11.38062172 -18.7338905 8.01947344 -17 4 C-11.68429645 -1.17940346 -6.98508729 -1.65170837 0 0 Z " fill="#010101" transform="translate(104,27)"/>
<path d="M0 0 C0.74886475 0.00523682 1.49772949 0.01047363 2.26928711 0.01586914 C3.07817383 0.0190918 3.88706055 0.02231445 4.72045898 0.02563477 C5.5705957 0.03401367 6.42073242 0.04239258 7.29663086 0.05102539 C8.15063477 0.05553711 9.00463867 0.06004883 9.88452148 0.06469727 C12.00108749 0.07652166 14.11761771 0.0944577 16.23413086 0.11352539 C16.23413086 1.76352539 16.23413086 3.41352539 16.23413086 5.11352539 C12.27413086 5.11352539 8.31413086 5.11352539 4.23413086 5.11352539 C4.23413086 6.76352539 4.23413086 8.41352539 4.23413086 10.11352539 C7.86413086 10.11352539 11.49413086 10.11352539 15.23413086 10.11352539 C15.23413086 11.76352539 15.23413086 13.41352539 15.23413086 15.11352539 C11.60413086 15.11352539 7.97413086 15.11352539 4.23413086 15.11352539 C4.23413086 17.09352539 4.23413086 19.07352539 4.23413086 21.11352539 C8.19413086 21.11352539 12.15413086 21.11352539 16.23413086 21.11352539 C16.23413086 22.76352539 16.23413086 24.41352539 16.23413086 26.11352539 C10.29413086 26.11352539 4.35413086 26.11352539 -1.76586914 26.11352539 C-1.95959018 21.96789504 -2.14614606 17.82216293 -2.32836914 13.67602539 C-2.38444336 12.49202148 -2.44051758 11.30801758 -2.49829102 10.08813477 C-2.54663086 8.96342773 -2.5949707 7.8387207 -2.64477539 6.67993164 C-2.69190674 5.63780518 -2.73903809 4.59567871 -2.78759766 3.52197266 C-2.75742245 0.17727104 -2.75742245 0.17727104 0 0 Z " fill="#020202" transform="translate(188.765869140625,26.886474609375)"/>
<path d="M0 0 C5.94 0 11.88 0 18 0 C18 1.65 18 3.3 18 5 C14.04 5 10.08 5 6 5 C6 6.65 6 8.3 6 10 C9.3 10 12.6 10 16 10 C16 11.65 16 13.3 16 15 C12.7 15 9.4 15 6 15 C6 16.98 6 18.96 6 21 C9.96 21 13.92 21 18 21 C18 22.65 18 24.3 18 26 C12.06 26 6.12 26 0 26 C0 17.42 0 8.84 0 0 Z " fill="#010101" transform="translate(269,27)"/>
<path d="M0 0 C0 0.33 0 0.66 0 1 C-1.34191406 1.22042969 -1.34191406 1.22042969 -2.7109375 1.4453125 C-14.9000839 3.70641215 -22.78726132 7.35841136 -30.3046875 17.38671875 C-32.69838915 21.07654917 -34.48631382 24.87719685 -36 29 C-37.98 28.67 -39.96 28.34 -42 28 C-39.00275206 18.40880659 -35.46556876 10.20664176 -26.390625 5.09765625 C-17.71274213 1.1132035 -9.52733754 -0.68734299 0 0 Z " fill="#81D05C" transform="translate(60,26)"/>
<path d="M0 0 C2 2 2 2 2.1875 5.5625 C2 9 2 9 1 10 C0.76712992 11.68183948 0.58735834 13.3712416 0.4375 15.0625 C0.31181641 16.44115234 0.31181641 16.44115234 0.18359375 17.84765625 C0.12300781 18.55792969 0.06242187 19.26820312 0 20 C-0.99 20 -1.98 20 -3 20 C-3 16.37 -3 12.74 -3 9 C-3.66 8.67 -4.32 8.34 -5 8 C-4.34 7.34 -3.68 6.68 -3 6 C-2.67 6.33 -2.34 6.66 -2 7 C-1.34 4.69 -0.68 2.38 0 0 Z " fill="#7DDA51" transform="translate(53,53)"/>
<path d="M0 0 C3.58912412 3.58912412 3.44420474 4.77293583 3.6875 9.6875 C3.78611328 11.45673828 3.78611328 11.45673828 3.88671875 13.26171875 C3.92410156 14.16535156 3.96148437 15.06898437 4 16 C2.77023438 16.19335938 1.54046875 16.38671875 0.2734375 16.5859375 C-1.35941728 16.84869574 -2.99222746 17.11173125 -4.625 17.375 C-5.43324219 17.50132813 -6.24148437 17.62765625 -7.07421875 17.7578125 C-11.55587884 18.48653772 -15.72476004 19.40889128 -20 21 C-20 20.34 -20 19.68 -20 19 C-17.22226858 17.14817905 -16.11616555 16.6658319 -12.98828125 16.1484375 C-11.85229492 15.95507812 -11.85229492 15.95507812 -10.69335938 15.7578125 C-9.90767578 15.63148437 -9.12199219 15.50515625 -8.3125 15.375 C-7.51521484 15.2409375 -6.71792969 15.106875 -5.89648438 14.96875 C-3.9320598 14.6393854 -1.96616073 14.31883687 0 14 C0 9.38 0 4.76 0 0 Z " fill="#88CA68" transform="translate(52,4)"/>
<path d="M0 0 C0.33 0 0.66 0 1 0 C1.07347656 1.62808594 1.07347656 1.62808594 1.1484375 3.2890625 C1.22351986 4.73439784 1.29906528 6.17970919 1.375 7.625 C1.42140625 8.69427734 1.42140625 8.69427734 1.46875 9.78515625 C1.71020155 14.17152608 2.39342731 17.8594834 4 22 C2.0625 21.1875 2.0625 21.1875 0 20 C-1.19231274 16.42306178 -1.1461202 13.15817447 -1.125 9.4375 C-1.12886719 8.75236328 -1.13273438 8.06722656 -1.13671875 7.36132812 C-1.12669335 2.2533867 -1.12669335 2.2533867 0 0 Z " fill="#8BCA6D" transform="translate(4,31)"/>
<path d="M0 0 C1.32 0.33 2.64 0.66 4 1 C2.73841989 2.81895279 1.46542094 4.6299902 0.1875 6.4375 C-0.87404297 7.95150391 -0.87404297 7.95150391 -1.95703125 9.49609375 C-4 12 -4 12 -7 13 C-5.58832253 7.73829306 -3.25149768 4.27828642 0 0 Z " fill="#87D164" transform="translate(68,30)"/>
<path d="M0 0 C0.66 0 1.32 0 2 0 C2 0.99 2 1.98 2 3 C2.99 3.33 3.98 3.66 5 4 C2.53424658 7.82191781 2.53424658 7.82191781 -0.0625 8.6875 C-0.701875 8.790625 -1.34125 8.89375 -2 9 C-2.99 9.495 -2.99 9.495 -4 10 C-3.52449439 8.51965236 -3.04448784 7.04074979 -2.5625 5.5625 C-2.29566406 4.73878906 -2.02882813 3.91507813 -1.75390625 3.06640625 C-1 1 -1 1 0 0 Z " fill="#85D84F" transform="translate(28,35)"/>
<path d="M0 0 C5.94 0.66 11.88 1.32 18 2 C18 2.33 18 2.66 18 3 C8.58997722 4.14806378 8.58997722 4.14806378 4 4 C3.67 4.66 3.34 5.32 3 6 C2.34 6 1.68 6 1 6 C0.67 4.02 0.34 2.04 0 0 Z " fill="#88D168" transform="translate(26,58)"/>
<path d="M0 0 C0 0.33 0 0.66 0 1 C-7.92 2.485 -7.92 2.485 -16 4 C-16.33 3.34 -16.66 2.68 -17 2 C-11.35600642 -0.44064587 -6.02248522 -0.19289099 0 0 Z " fill="#8BBA70" transform="translate(60,26)"/>
<path d="M0 0 C0.66 0 1.32 0 2 0 C1.67 1.98 1.34 3.96 1 6 C-1.97 5.505 -1.97 5.505 -5 5 C-4.34 3.68 -3.68 2.36 -3 1 C-2.34 1.66 -1.68 2.32 -1 3 C-0.67 2.01 -0.34 1.02 0 0 Z " fill="#89C96C" transform="translate(23,49)"/>
<path d="M0 0 C0.68359375 1.734375 0.68359375 1.734375 1 4 C-0.21484375 6.140625 -0.21484375 6.140625 -1.9375 8.25 C-2.50339844 8.95640625 -3.06929687 9.6628125 -3.65234375 10.390625 C-4.31943359 11.18726563 -4.31943359 11.18726563 -5 12 C-5.33 11.01 -5.66 10.02 -6 9 C-4.78515625 6.73828125 -4.78515625 6.73828125 -3.0625 4.3125 C-2.49660156 3.50425781 -1.93070313 2.69601563 -1.34765625 1.86328125 C-0.90292969 1.24839844 -0.45820312 0.63351563 0 0 Z " fill="#88CD65" transform="translate(60,43)"/>
<path d="M0 0 C0.66 0.33 1.32 0.66 2 1 C1.34 2.65 0.68 4.3 0 6 C-3.10551666 6 -4.35261084 5.4606285 -7 4 C-6.030625 3.525625 -5.06125 3.05125 -4.0625 2.5625 C-1.19522563 1.29806053 -1.19522563 1.29806053 0 0 Z " fill="#86D263" transform="translate(51,55)"/>
<path d="M0 0 C1.65 0.33 3.3 0.66 5 1 C5.33 1.99 5.66 2.98 6 4 C3.36 3.67 0.72 3.34 -2 3 C-1.34 2.01 -0.68 1.02 0 0 Z " fill="#89C96A" transform="translate(71,26)"/>
<path d="M0 0 C4.875 3.625 4.875 3.625 6 7 C4.125 6.6875 4.125 6.6875 2 6 C0 3 0 3 0 0 Z " fill="#8BCB6E" transform="translate(27,70)"/>
<path d="" fill="#FFFFFF" transform="translate(0,0)"/>
<path d="" fill="#FFFFFF" transform="translate(0,0)"/>
<path d="" fill="#FFFFFF" transform="translate(0,0)"/>
<path d="" fill="#FFFFFF" transform="translate(0,0)"/>
<path d="" fill="#FEFFFF" transform="translate(0,0)"/>
<path d="" fill="#FFFFFF" transform="translate(0,0)"/>
<path d="" fill="#FFFFFF" transform="translate(0,0)"/>
<path d="" fill="#FFFFFF" transform="translate(0,0)"/>
<path d="" fill="#FFFFFF" transform="translate(0,0)"/>
<path d="" fill="#FEFFFF" transform="translate(0,0)"/>
<path d="" fill="#FFFFFF" transform="translate(0,0)"/>
<path d="" fill="#FFFFFF" transform="translate(0,0)"/>
<path d="" fill="#FFFFFF" transform="translate(0,0)"/>
<path d="" fill="#FFFFFF" transform="translate(0,0)"/>
<path d="" fill="#FFFFFF" transform="translate(0,0)"/>
<path d="" fill="#FFFFFF" transform="translate(0,0)"/>
<path d="" fill="#FFFFFF" transform="translate(0,0)"/>
<path d="" fill="#FFFFFF" transform="translate(0,0)"/>
<path d="" fill="#FFFFFF" transform="translate(0,0)"/>
<path d="" fill="#FFFFFF" transform="translate(0,0)"/>
<path d="" fill="#FFFFFF" transform="translate(0,0)"/>
<path d="" fill="#FFFFFF" transform="translate(0,0)"/>
<path d="" fill="#FFFFFF" transform="translate(0,0)"/>
<path d="" fill="#FFFFFF" transform="translate(0,0)"/>
<path d="" fill="#FFFFFF" transform="translate(0,0)"/>
<path d="" fill="#FFFFFF" transform="translate(0,0)"/>
<path d="" fill="#FFFFFF" transform="translate(0,0)"/>
<path d="" fill="#FFFFFF" transform="translate(0,0)"/>
<path d="" fill="#FFFFFF" transform="translate(0,0)"/>
<path d="" fill="#FFFFFF" transform="translate(0,0)"/>
<path d="" fill="#FFFFFF" transform="translate(0,0)"/>
<path d="" fill="#FFFFFF" transform="translate(0,0)"/>
<path d="" fill="#FFFFFF" transform="translate(0,0)"/>
<path d="" fill="#FFFFFF" transform="translate(0,0)"/>
<path d="" fill="#FFFFFF" transform="translate(0,0)"/>
<path d="" fill="#FFFFFF" transform="translate(0,0)"/>
<path d="" fill="#FFFFFF" transform="translate(0,0)"/>
<path d="" fill="#FFFFFF" transform="translate(0,0)"/>
<path d="" fill="#FFFFFF" transform="translate(0,0)"/>
<path d="" fill="#FFFFFF" transform="translate(0,0)"/>
<path d="" fill="#FFFFFF" transform="translate(0,0)"/>
<path d="" fill="#FFFFFF" transform="translate(0,0)"/>
<path d="" fill="#FFFFFF" transform="translate(0,0)"/>
<path d="" fill="#FFFFFF" transform="translate(0,0)"/>
<path d="" fill="#00FFFF" transform="translate(0,0)"/>
<path d="" fill="#FFFFFF" transform="translate(0,0)"/>
<path d="" fill="#FFFFFF" transform="translate(0,0)"/>
<path d="" fill="#FFFFFF" transform="translate(0,0)"/>
<path d="" fill="#FFFFFF" transform="translate(0,0)"/>
<path d="" fill="#FFFFFF" transform="translate(0,0)"/>
<path d="" fill="#FFFFFF" transform="translate(0,0)"/>
<path d="" fill="#FFFFFF" transform="translate(0,0)"/>
<path d="" fill="#FFFFFF" transform="translate(0,0)"/>
<path d="" fill="#FFFFFF" transform="translate(0,0)"/>
<path d="" fill="#FFFFFF" transform="translate(0,0)"/>
<path d="" fill="#FFFFFF" transform="translate(0,0)"/>
<path d="" fill="#FFFFFF" transform="translate(0,0)"/>
<path d="" fill="#FFFFFF" transform="translate(0,0)"/>
<path d="" fill="#FFFFFF" transform="translate(0,0)"/>
<path d="" fill="#FFFFFF" transform="translate(0,0)"/>
<path d="" fill="#FFFFFF" transform="translate(0,0)"/>
<path d="" fill="#FFFFFF" transform="translate(0,0)"/>
</svg>
