<?xml version="1.0" encoding="UTF-8"?>
<svg version="1.1" xmlns="http://www.w3.org/2000/svg" width="84" height="78">
<path d="M0 0 C0.91136719 -0.02449219 1.82273438 -0.04898438 2.76171875 -0.07421875 C9.47686423 -0.10371426 9.47686423 -0.10371426 12.6953125 2.2734375 C15.17515663 5.91867286 15.23436811 8.09439797 15.1875 12.5 C15.17847656 13.59570312 15.16945312 14.69140625 15.16015625 15.8203125 C15.14855469 16.66335937 15.13695312 17.50640625 15.125 18.375 C14.15820312 18.47296875 13.19140625 18.5709375 12.1953125 18.671875 C0.38466526 20.02834538 -9.62548069 22.07275781 -17.875 31.375 C-22.29889656 37.51704598 -23.40998807 45.09433464 -24.875 52.375 C-28.84865037 53.57653575 -31.02714289 53.012386 -34.875 51.375 C-36.94432088 49.75000057 -37.77032729 48.87871909 -38.31079102 46.27783203 C-38.3845597 43.68402992 -38.43196316 41.0949309 -38.4375 38.5 C-38.47423828 37.60152344 -38.51097656 36.70304687 -38.54882812 35.77734375 C-38.5908335 29.45786866 -38.5908335 29.45786866 -36.73461914 26.64990234 C-33.16842882 23.34488284 -29.89558433 22.78280895 -25.1875 22.75 C-20.87234392 22.80824126 -20.87234392 22.80824126 -17.01171875 21.21875 C-15.41555139 18.62977752 -15.46545414 16.52267592 -15.375 13.5 C-15.0360378 2.22950685 -10.09570613 0.01415948 0 0 Z " fill="#83DA5D" transform="translate(41.875,0.625)"/>
<path d="M0 0 C2.875 0.3125 2.875 0.3125 6 1 C8.76220704 5.14331056 8.36768911 8.50594895 8.375 13.375 C8.39949219 14.22578125 8.42398438 15.0765625 8.44921875 15.953125 C8.46764551 19.89645091 8.27041549 22.45986596 6.484375 26.02734375 C3.13861248 28.68396336 -0.00247786 28.93306885 -4.125 29.1875 C-9.55969525 29.30871343 -9.55969525 29.30871343 -14 32 C-14.35002824 35.24773041 -14.44322239 38.47438814 -14.55859375 41.73828125 C-15.03713879 45.27443266 -15.8748626 47.16145951 -18 50 C-22.04157351 52.69438234 -25.13103683 52.36745793 -29.875 52.375 C-30.67808594 52.39949219 -31.48117188 52.42398438 -32.30859375 52.44921875 C-36.34922972 52.46918894 -38.48600856 52.31373504 -42.0078125 50.1640625 C-45.4244772 46.45262673 -45.11044505 43.15494993 -45.0625 38.3125 C-45.05347656 37.13300781 -45.04445313 35.95351563 -45.03515625 34.73828125 C-45.02355469 33.83464844 -45.01195313 32.93101563 -45 32 C-43.69675781 32.23783203 -43.69675781 32.23783203 -42.3671875 32.48046875 C-35.11514274 33.59940373 -27.32737765 34.38022632 -20.79296875 30.5 C-14.03752178 24.84838424 -10.08325922 15.81741444 -5.89453125 8.19921875 C-4.13278579 5.22423002 -2.22987401 2.63530565 0 0 Z " fill="#81DA5C" transform="translate(72,25)"/>
<path d="M0 0 C0 0.33 0 0.66 0 1 C-0.82242188 1.14695312 -1.64484375 1.29390625 -2.4921875 1.4453125 C-14.1953233 3.79675087 -23.05424738 8.04611121 -30 18 C-32.14391788 21.59854953 -34.12145654 25.2566753 -36 29 C-37.65 28.67 -39.3 28.34 -41 28 C-38.38014558 18.27896122 -34.2739717 10.62342185 -25.50390625 5.28125 C-17.14526809 1.00413094 -9.34311313 -1.64878467 0 0 Z " fill="#7FDA5A" transform="translate(60,25)"/>
<path d="M0 0 C0 0.33 0 0.66 0 1 C-1.01320313 1.13277344 -2.02640625 1.26554687 -3.0703125 1.40234375 C-4.42188204 1.58067584 -5.77344414 1.75906425 -7.125 1.9375 C-7.79015625 2.02451172 -8.4553125 2.11152344 -9.140625 2.20117188 C-13.10830188 2.72630558 -17.05626998 3.31814014 -21 4 C-15.93778597 -1.06221403 -6.6831053 -1.67077633 0 0 Z " fill="#9BE17A" transform="translate(60,25)"/>
<path d="M0 0 C0.66 0.33 1.32 0.66 2 1 C-1.3 4.3 -4.6 7.6 -8 11 C-8 7.0234755 -6.61988497 5.9109833 -4 3 C-1.75 1.1875 -1.75 1.1875 0 0 Z " fill="#8FDE6B" transform="translate(33,31)"/>
</svg>
